# Blender v2.80 (sub 75) OBJ File: 'ElRamo.blend'
# www.blender.org
mtllib ProtoRAM.mtl
o Plane
v -1.605000 0.110006 0.010065
v -1.605000 0.805005 0.010065
v 0.130075 0.474848 0.010065
v -1.605000 0.581861 0.010065
v -1.605000 0.474303 0.010065
v -1.605000 0.398582 0.010065
v -1.605000 0.294430 0.010065
v 0.102029 0.089318 0.010065
v -1.525212 0.294430 0.010065
v -1.525212 0.398582 0.010065
v -1.525212 0.474303 0.010065
v -1.525212 0.581861 0.010065
v 1.605000 0.110006 0.010065
v 1.605000 0.805005 0.010065
v 0.941052 0.110006 0.010065
v 1.605000 0.581861 0.010065
v 1.605000 0.474303 0.010065
v 1.605000 0.398582 0.010065
v 1.605000 0.294430 0.010065
v 0.941052 0.474848 0.010065
v 1.513743 0.294430 0.010065
v 1.513743 0.398582 0.010065
v 1.513743 0.474303 0.010065
v 1.513743 0.581861 0.010065
v -0.800000 0.474848 0.010065
v -0.800000 0.110006 0.010065
v 0.158121 0.089318 0.010065
v 0.130075 0.805005 0.010065
v 0.130075 0.216657 0.010065
v -0.593285 0.089318 0.010065
v 0.742510 0.089318 0.010065
v 0.118205 0.192834 0.010065
v 0.141606 0.194374 0.010065
v -1.605000 0.110006 -0.009935
v -1.605000 0.805005 -0.009935
v 0.130075 0.474848 -0.009935
v -1.605000 0.581861 -0.009935
v -1.605000 0.474303 -0.009935
v -1.605000 0.398582 -0.009935
v -1.605000 0.294430 -0.009935
v 0.102029 0.089318 -0.009935
v -1.525212 0.294430 -0.009935
v -1.525212 0.398582 -0.009935
v -1.525212 0.474303 -0.009935
v -1.525212 0.581861 -0.009935
v 1.605000 0.110006 -0.009935
v 1.605000 0.805005 -0.009935
v 0.941052 0.110006 -0.009935
v 1.605000 0.581861 -0.009935
v 1.605000 0.474303 -0.009935
v 1.605000 0.398582 -0.009935
v 1.605000 0.294430 -0.009935
v 0.941052 0.474848 -0.009935
v 1.513743 0.294430 -0.009935
v 1.513743 0.398582 -0.009935
v 1.513743 0.474303 -0.009935
v 1.513743 0.581861 -0.009935
v -0.800000 0.474848 -0.009935
v -0.800000 0.110006 -0.009935
v 0.158121 0.089318 -0.009935
v 0.130075 0.805005 -0.009935
v 0.130075 0.216657 -0.009935
v -0.593285 0.089318 -0.009935
v 0.742510 0.089318 -0.009935
v 0.118205 0.192834 -0.009935
v 0.141606 0.194374 -0.009935
vt 0.040395 0.166147
vt 0.259238 0.129818
vt 0.259238 0.202037
vt 0.040395 0.186763
vt 0.040395 0.201752
vt 0.017729 0.267389
vt 0.040395 0.223042
vt 0.017729 0.186940
vt 0.017729 0.201929
vt 0.017729 0.129818
vt 0.017729 0.166324
vt 0.017729 0.223219
vt 0.722009 0.125723
vt 0.781573 0.202037
vt 0.538271 0.202037
vt 0.546685 0.125723
vt 0.980765 0.267389
vt 0.538271 0.267389
vt 0.955176 0.166147
vt 0.955176 0.186763
vt 0.781573 0.129818
vt 0.955176 0.201752
vt 0.955176 0.223042
vt 0.980765 0.186940
vt 0.980765 0.201929
vt 0.980765 0.129818
vt 0.980765 0.166324
vt 0.980765 0.223219
vt 0.321255 0.125723
vt 0.538271 0.150929
vt 0.534710 0.146213
vt 0.541731 0.146518
vt 0.529857 0.125723
vt 0.040395 0.166147
vt 0.040395 0.186763
vt 0.259238 0.202037
vt 0.259238 0.129818
vt 0.040395 0.201752
vt 0.040395 0.223042
vt 0.017729 0.267389
vt 0.017729 0.186940
vt 0.017729 0.201929
vt 0.017729 0.129818
vt 0.017729 0.166324
vt 0.017729 0.223219
vt 0.722009 0.125723
vt 0.546685 0.125723
vt 0.538271 0.202037
vt 0.781573 0.202037
vt 0.538271 0.267389
vt 0.980765 0.267389
vt 0.955176 0.166147
vt 0.781573 0.129818
vt 0.955176 0.186763
vt 0.955176 0.201752
vt 0.955176 0.223042
vt 0.980765 0.186940
vt 0.980765 0.201929
vt 0.980765 0.129818
vt 0.980765 0.166324
vt 0.980765 0.223219
vt 0.321255 0.125723
vt 0.538271 0.150929
vt 0.534710 0.146213
vt 0.541731 0.146518
vt 0.529857 0.125723
vn 0.0000 0.0000 1.0000
vn 0.0000 0.0000 -1.0000
vn -1.0000 -0.0000 0.0000
vn 0.8951 -0.4460 0.0000
vn 0.0000 1.0000 0.0000
vn 0.0000 -1.0000 0.0000
vn -0.9879 -0.1553 0.0000
vn 1.0000 -0.0000 0.0000
vn 0.1036 -0.9946 0.0000
vn -0.0996 -0.9950 0.0000
vn 0.9880 -0.1544 0.0000
vn -0.8881 -0.4596 0.0000
usemtl Material.001
s off
f 9/1/1 26/2/1 25/3/1 10/4/1
f 10/4/1 25/3/1 11/5/1
f 11/5/1 25/3/1 2/6/1 12/7/1
f 6/8/1 10/4/1 11/5/1 5/9/1
f 1/10/1 26/2/1 9/1/1 7/11/1
f 4/12/1 12/7/1 2/6/1
f 31/13/1 20/14/1 3/15/1 27/16/1
f 20/14/1 14/17/1 28/18/1 3/15/1
f 21/19/1 22/20/1 20/14/1 15/21/1
f 22/20/1 23/22/1 20/14/1
f 23/22/1 24/23/1 14/17/1 20/14/1
f 18/24/1 17/25/1 23/22/1 22/20/1
f 13/26/1 19/27/1 21/19/1 15/21/1
f 16/28/1 14/17/1 24/23/1
f 30/29/1 25/3/1 26/2/1
f 29/30/1 3/15/1 32/31/1
f 27/16/1 3/15/1 33/32/1
f 8/33/1 3/15/1 25/3/1 30/29/1
f 15/21/1 20/14/1 31/13/1
f 3/15/1 28/18/1 2/6/1 25/3/1
f 32/31/1 3/15/1 8/33/1
f 33/32/1 3/15/1 29/30/1
f 42/34/2 43/35/2 58/36/2 59/37/2
f 43/35/2 44/38/2 58/36/2
f 44/38/2 45/39/2 35/40/2 58/36/2
f 39/41/2 38/42/2 44/38/2 43/35/2
f 34/43/2 40/44/2 42/34/2 59/37/2
f 37/45/2 35/40/2 45/39/2
f 64/46/2 60/47/2 36/48/2 53/49/2
f 53/49/2 36/48/2 61/50/2 47/51/2
f 54/52/2 48/53/2 53/49/2 55/54/2
f 55/54/2 53/49/2 56/55/2
f 56/55/2 53/49/2 47/51/2 57/56/2
f 51/57/2 55/54/2 56/55/2 50/58/2
f 46/59/2 48/53/2 54/52/2 52/60/2
f 49/61/2 57/56/2 47/51/2
f 63/62/2 59/37/2 58/36/2
f 62/63/2 65/64/2 36/48/2
f 60/47/2 66/65/2 36/48/2
f 41/66/2 63/62/2 58/36/2 36/48/2
f 48/53/2 64/46/2 53/49/2
f 36/48/2 58/36/2 35/40/2 61/50/2
f 65/64/2 41/66/2 36/48/2
f 66/65/2 62/63/2 36/48/2
f 1/10/3 7/11/3 40/44/3 34/43/3
f 4/12/3 2/6/3 35/40/3 37/45/3
f 6/8/3 5/9/3 38/42/3 39/41/3
f 29/30/4 32/31/4 65/64/4 62/63/4
f 7/11/5 9/1/5 42/34/5 40/44/5
f 10/4/6 6/8/6 39/41/6 43/35/6
f 5/9/5 11/5/5 44/38/5 38/42/5
f 12/7/6 4/12/6 37/45/6 45/39/6
f 27/16/7 33/32/7 66/65/7 60/47/7
f 11/5/3 12/7/3 45/39/3 44/38/3
f 9/1/3 10/4/3 43/35/3 42/34/3
f 8/33/6 30/29/6 63/62/6 41/66/6
f 19/27/8 13/26/8 46/59/8 52/60/8
f 14/17/8 16/28/8 49/61/8 47/51/8
f 17/25/8 18/24/8 51/57/8 50/58/8
f 21/19/5 19/27/5 52/60/5 54/52/5
f 18/24/6 22/20/6 55/54/6 51/57/6
f 23/22/5 17/25/5 50/58/5 56/55/5
f 16/28/6 24/23/6 57/56/6 49/61/6
f 13/26/6 15/21/6 48/53/6 46/59/6
f 15/21/9 31/13/9 64/46/9 48/53/9
f 24/23/8 23/22/8 56/55/8 57/56/8
f 22/20/8 21/19/8 54/52/8 55/54/8
f 26/2/6 1/10/6 34/43/6 59/37/6
f 30/29/10 26/2/10 59/37/10 63/62/10
f 28/18/5 14/17/5 47/51/5 61/50/5
f 31/13/6 27/16/6 60/47/6 64/46/6
f 2/6/5 28/18/5 61/50/5 35/40/5
f 32/31/11 8/33/11 41/66/11 65/64/11
f 33/32/12 29/30/12 62/63/12 66/65/12
